<svg width="63" height="51" viewBox="0 0 63 51" fill="none" xmlns="http://www.w3.org/2000/svg">
<path d="M61.5 15H1.5M1.5 27H12.14C13.7606 27 14.5709 27 15.3544 27.1397C16.0499 27.2636 16.7283 27.469 17.3757 27.7517C18.1051 28.0701 18.7793 28.5195 20.1277 29.4185L21.8723 30.5815C23.2207 31.4805 23.8949 31.9299 24.6243 32.2483C25.2717 32.531 25.9501 32.7364 26.6456 32.8603C27.4291 33 28.2394 33 29.86 33H33.14C34.7606 33 35.5709 33 36.3544 32.8603C37.0499 32.7364 37.7283 32.531 38.3757 32.2483C39.1051 31.9299 39.7793 31.4805 41.1277 30.5815L42.8723 29.4185C44.2207 28.5196 44.8949 28.0701 45.6243 27.7517C46.2717 27.469 46.9501 27.2636 47.6456 27.1397C48.4291 27 49.2394 27 50.86 27H61.5M1.5 11.1L1.5 39.9C1.5 43.2603 1.5 44.9405 2.15396 46.2239C2.7292 47.3529 3.64708 48.2708 4.77606 48.846C6.05953 49.5 7.73968 49.5 11.1 49.5L51.9 49.5C55.2603 49.5 56.9405 49.5 58.2239 48.846C59.3529 48.2708 60.2708 47.3529 60.846 46.2239C61.5 44.9405 61.5 43.2603 61.5 39.9V11.1C61.5 7.73969 61.5 6.05953 60.846 4.77606C60.2708 3.64709 59.3529 2.72921 58.2239 2.15397C56.9405 1.5 55.2603 1.5 51.9 1.5L11.1 1.5C7.73969 1.5 6.05953 1.5 4.77606 2.15396C3.64709 2.7292 2.7292 3.64708 2.15396 4.77606C1.5 6.05953 1.5 7.73968 1.5 11.1Z" stroke="black" stroke-width="3" stroke-linecap="round" stroke-linejoin="round"/>
</svg>
