<svg width="52" height="51" viewBox="0 0 52 51" fill="none" xmlns="http://www.w3.org/2000/svg">
<path d="M17.8333 25.5H5.85556C4.33097 25.5 3.56867 25.5 2.98636 25.7907C2.47414 26.0463 2.05769 26.4543 1.7967 26.956C1.5 27.5265 1.5 28.2732 1.5 29.7667V45.2333C1.5 46.7268 1.5 47.4735 1.7967 48.044C2.05769 48.5457 2.47414 48.9537 2.98636 49.2094C3.56867 49.5 4.33097 49.5 5.85555 49.5H17.8333M17.8333 49.5H34.1667M17.8333 49.5L17.8333 16.4333C17.8333 14.9399 17.8333 14.1931 18.13 13.6227C18.391 13.1209 18.8075 12.713 19.3197 12.4573C19.902 12.1667 20.6643 12.1667 22.1889 12.1667H29.8111C31.3357 12.1667 32.098 12.1667 32.6803 12.4573C33.1925 12.713 33.609 13.1209 33.87 13.6227C34.1667 14.1931 34.1667 14.9399 34.1667 16.4333V49.5M34.1667 49.5H46.1444C47.669 49.5 48.4313 49.5 49.0136 49.2094C49.5259 48.9537 49.9423 48.5457 50.2033 48.044C50.5 47.4735 50.5 46.7268 50.5 45.2333V5.76667C50.5 4.27319 50.5 3.52646 50.2033 2.95603C49.9423 2.45426 49.5259 2.04631 49.0136 1.79065C48.4313 1.5 47.669 1.5 46.1444 1.5H38.5222C36.9976 1.5 36.2353 1.5 35.653 1.79065C35.1408 2.04631 34.7244 2.45426 34.4634 2.95603C34.1667 3.52646 34.1667 4.27319 34.1667 5.76667V14.8333" stroke="black" stroke-width="3" stroke-linecap="round" stroke-linejoin="round"/>
</svg>
