<svg width="63" height="57" viewBox="0 0 63 57" fill="none" xmlns="http://www.w3.org/2000/svg">
<path d="M1.5 34.5L61.5 34.5M19.5 55.5H43.5M15.9 46.5H47.1C52.1405 46.5 54.6607 46.5 56.5859 45.5191C58.2794 44.6562 59.6562 43.2794 60.5191 41.5859C61.5 39.6607 61.5 37.1405 61.5 32.1V15.9C61.5 10.8595 61.5 8.33929 60.5191 6.41409C59.6562 4.72063 58.2794 3.3438 56.5859 2.48094C54.6607 1.5 52.1405 1.5 47.1 1.5H15.9C10.8595 1.5 8.33929 1.5 6.41409 2.48094C4.72063 3.3438 3.3438 4.72063 2.48094 6.41409C1.5 8.33929 1.5 10.8595 1.5 15.9V32.1C1.5 37.1405 1.5 39.6607 2.48094 41.5859C3.3438 43.2794 4.72063 44.6562 6.41409 45.5191C8.33929 46.5 10.8595 46.5 15.9 46.5Z" stroke="black" stroke-width="3" stroke-linecap="round" stroke-linejoin="round"/>
</svg>
